<svg height="30" viewBox="0 0 41 40" fill="none" xmlns="http://www.w3.org/2000/svg">
<g clip-path="url(#clip0_60_880)">
<path d="M9.82874 10.1234H18.1583L18.219 7.50288H6.99512V27.79H17.9358V25.241H9.82874V10.1234Z" fill="white"/>
<path d="M19.7345 13.363L22.7003 16.3288H13.6465V19.0262H22.9593L19.7345 22.2496L21.6429 24.1567L27.4208 18.3789V17.2338L21.6429 11.456L19.7345 13.363Z" fill="white"/>
<path d="M38.9389 6.73956L33.5292 1.40545L33.4942 1.36903H33.4348H30.7374H0.823242V33.982L5.50458 38.6876H38.9928L38.9389 6.74091V6.73956ZM36.2442 7.86977L36.2887 34.2153L33.4362 31.3628V5.10089L36.2442 7.86977ZM3.52064 4.06509H30.7388V31.2832H3.52064V4.06509ZM4.62793 33.9806H32.2385L34.2467 35.9888H6.62535L4.62793 33.9806Z" fill="white"/>
</g>
<defs>
<clipPath id="clip0_60_880">
<rect width="40.198" height="39.6707" fill="white" transform="translate(0.109375 0.0891113)"/>
</clipPath>
</defs>
</svg>
