<svg height="25" viewBox="0 0 25 23" fill="none" xmlns="http://www.w3.org/2000/svg">
<path d="M15.3428 0C20.3133 0 24.3428 4.02944 24.3428 9C24.3428 13.9706 20.3133 18 15.3428 18C12.7775 18 10.4646 16.9251 8.8252 15.2031L0.685547 22.8643L0 22.1357L8.1748 14.4404C7.02602 12.9292 6.34277 11.0447 6.34277 9C6.34277 4.02944 10.3722 0 15.3428 0ZM15.3428 1C10.9245 1 7.34277 4.58172 7.34277 9C7.34277 13.4183 10.9245 17 15.3428 17C19.7611 17 23.3428 13.4183 23.3428 9C23.3428 4.58172 19.7611 1 15.3428 1Z" fill="white"/>
</svg>
