<svg width="1068" height="277" viewBox="0 0 1068 277" fill="none" xmlns="http://www.w3.org/2000/svg">
<g clip-path="url(#clip0_524_188)">
<path d="M126.49 176.1H66.6996V64.61H109V87.85H128.58V45.29H45.8096V194.9H126.49V176.1Z" fill="#7E5BB6"/>
<path d="M290.98 194.9H310.83V64.35H341.64V45.29H258.61V64.35H290.98V194.9Z" fill="#7E5BB6"/>
<path d="M433.25 194.9L460.14 45.29H433.77L415.23 173.49H407.66L388.86 45.29H363.8L390.43 194.9H433.25Z" fill="#7E5BB6"/>
<path d="M173.76 128.21H182.11L218.66 195.05H244.77L208.48 128.21H231.46V45.4399H153.91V195.05H174.01L173.75 128.21H173.76ZM173.76 63.9799H210.57V109.41H173.76V63.9799Z" fill="#7E5BB6"/>
<path d="M567.56 195.91H650.77V175.44H587.51V115.58H650.77V96.68H587.51V64.13H650.77V45.23L567.56 45.49V195.91Z" fill="#7E5BB6"/>
<path d="M677.83 115.32L740.04 151.28V176.22H697.78V152.86H677.83V195.91L760.52 195.65V132.12L698.83 96.41V64.92H741.36V88.28H761.04V45.49H677.83V115.32Z" fill="#7E5BB6"/>
<path d="M805.1 64.92H866.87L867.31 45.49H784.1V195.91H865.22V177.01H805.1V64.92Z" fill="#7E5BB6"/>
<path d="M915.56 88.94L937.54 110.92H831.11V130.92H939.46L915.56 154.83L929.7 168.97L972.54 126.13V117.64L929.7 74.8L915.56 88.94Z" fill="#7E5BB6"/>
<path d="M1026.14 0H523.5V20.18L502.64 0.02H0V241.83L32.51 273.81L543.85 276.77L543.82 261.48L556.01 273.79L1067.35 276.75L1066.95 39.82L1026.14 0ZM1026.14 221.81V27.67L1046.96 48.2L1047.29 243.54L1026.14 222.39V221.81ZM543.5 72.44V20H1006.14V221.81H543.75L543.5 72.45V72.44ZM523.5 72.61V241.81H523.78V243.56L502.63 222.41V27.69L523.45 48.22L523.49 72.6L523.5 72.61ZM482.64 20.02V221.83H20V20.02H482.64ZM28.99 241.83H493.77L508.51 256.57L40.9 253.86L28.99 241.83ZM552.48 241.81H1017.26L1032 256.55L564.39 253.84L552.48 241.81Z" fill="#7E5BB6"/>
</g>
<defs>
<clipPath id="clip0_524_188">
<rect width="1067.34" height="276.77" fill="white"/>
</clipPath>
</defs>
</svg>
